<svg width="200" height="200" viewBox="0 0 200 200" fill="none" xmlns="http://www.w3.org/2000/svg">
<path d="M11.333 55.6309C28.4657 22.3035 56.0962 4.2554 93.1644 0.541067C119.077 -2.05541 142.691 4.7241 163.655 20.2104C169.193 24.3015 169.586 27.5007 164.424 32.1289C157.767 38.0976 151.563 44.5521 145.196 50.829C143.331 52.6685 142.109 54.0317 138.891 51.9559C101.646 27.9303 62.8804 39.0659 44.5599 79.2298C43.3689 80.2274 42.2534 80.666 41.3944 80.0621C30.8928 72.6794 19.8041 65.9959 11.333 55.6309Z" fill="#E33F2C"/>
<path d="M43.6662 119.832C53.7616 142.238 69.8546 156.689 95.3611 160.816C99.8805 161.103 103.916 161.021 108.633 161.053C118.631 158.972 128.036 157.025 136.845 151.692C139.147 151.4 140.951 151.312 142.476 152.488C151.665 159.576 161.515 165.878 169.605 174.851C154.981 189.851 136.58 196.43 116.532 199.065C72.9982 204.786 32.15 183.944 11.4017 145.283C11.2295 143.972 11.1954 143.033 11.7348 142.575C21.6108 134.197 31.1432 125.357 43.6662 119.832Z" fill="#2DA24D"/>
<path d="M170.124 175.15C159.196 167.601 148.768 159.798 137.849 151.71C146.335 144.603 153.099 136.307 156.621 125.498C158.016 121.216 157.021 120.191 152.715 120.234C137.978 120.379 123.236 120.102 108.504 120.389C103.503 120.487 101.653 119.157 101.869 114.056C102.254 104.963 102.135 95.8395 101.907 86.7365C101.804 82.6213 102.932 80.9438 107.517 80.9724C135.957 81.1499 164.4 81.1581 192.84 80.9594C197.197 80.929 198.815 82.4903 199.198 86.4025C202.472 119.867 196.275 150.383 170.124 175.15Z" fill="#3C7DEB"/>
<path d="M44.1801 119.372C33.495 127.951 22.7662 135.963 11.6623 144.358C-4.09453 115.191 -3.44818 85.5197 10.9659 55.4102C21.9847 63.1884 32.6154 71.3025 43.7661 79.5607C40.6306 92.7249 39.6345 105.755 44.1801 119.372Z" fill="#F0B502"/>
</svg>
