<svg width="900" height="900" viewBox="0 0 900 900" fill="none" xmlns="http://www.w3.org/2000/svg">
<rect width="900" height="900" rx="450" fill="white"/>
<path d="M260 250C260 194.772 304.772 150 360 150H453.401V748.477H360C304.772 748.477 260 703.706 260 648.477V250Z" fill="#D9D9D9"/>
<path d="M276.751 250C276.751 194.772 321.523 150 376.751 150H470.152V749.239H376.752C321.523 749.239 276.751 704.467 276.751 649.239V250Z" fill="#A5A5A5"/>
<path d="M291.98 494.924H639.188V650C639.188 705.228 594.417 750 539.188 750H391.98C336.752 750 291.98 705.228 291.98 650V494.924Z" fill="#3C7DEB"/>
<path d="M291.218 250C291.218 194.772 335.99 150 391.218 150H590.457V466.751H291.218V250Z" fill="#E33F2C"/>
<path d="M591.599 150L602.64 156.098V156.098C624.749 170.616 638.103 195.254 638.199 221.704L639.188 494.924L265.4 491.4L591.599 150Z" fill="#F0B502"/>
<path d="M475.259 351.738L265.4 491.4C382.83 567.519 588.266 704.091 605.371 698.235C622.475 692.379 639.2 673.432 639.2 620.035L638.915 575.768L638.63 531.501L638.06 442.967C638.06 430.947 636.937 411.222 632.738 401.628C620.665 367.644 571.948 310.13 475.259 351.738Z" fill="#2DA24D"/>
</svg>
