<svg width="92" height="100" viewBox="0 0 92 100" fill="none" xmlns="http://www.w3.org/2000/svg">
<path d="M58.3633 80.3801C61.7654 69.6986 65.1368 59.1119 68.5118 48.5263C68.8657 47.4163 69.2278 46.3085 69.6097 45.2078C69.8998 44.3715 69.8119 43.8713 68.804 43.5675C65.6557 42.6187 62.5389 41.5651 59.4142 40.5389C57.3027 39.8455 57.3083 39.8363 58.0019 37.6692C58.9525 34.6994 59.9007 31.7289 60.8453 28.7573C60.9444 28.4455 61.013 28.1241 61.1126 27.743C59.8193 27.0591 58.4487 26.7196 57.1191 26.2887C49.0431 23.6709 40.9616 21.0702 32.8787 18.4739C31.1797 17.9282 31.1653 17.9449 30.6371 19.6161C29.5585 23.0287 28.4915 26.4449 27.4143 29.8579C27.2917 30.2464 27.2427 30.6837 26.8246 30.9278C26.3314 30.9469 26.258 30.5125 26.0945 30.2048C25.0783 28.2929 24.0921 26.3648 23.0615 24.4608C22.6547 23.7091 22.6175 22.9854 22.8795 22.1824C24.0927 18.4634 25.2567 14.7283 26.4855 11.0145C27.5653 7.75109 30.5227 6.25004 33.8344 7.30076C45.1769 10.8995 56.5112 14.5245 67.8478 18.1418C71.098 19.1788 74.3467 20.2206 77.5945 21.2653C81.2347 22.4362 82.8335 25.3176 81.6957 28.9507C78.9119 37.8389 76.0526 46.7035 73.2306 55.5799C71.8441 59.9413 70.4907 64.3133 69.0905 68.6703C67.0923 74.8883 65.0893 81.105 63.0395 87.3061C62.0649 90.2543 59.2315 91.7783 56.33 91.0741C55.4228 90.854 55.0749 90.494 55.4116 89.5025C56.4285 86.508 57.3655 83.4864 58.3633 80.3801ZM60.4065 34.7648C59.9901 36.0978 59.5738 37.4308 59.1128 38.9067C62.649 40.0298 66.0599 41.1132 69.4708 42.1965C69.5351 42.0973 69.5994 41.9981 69.6638 41.899C67.5006 37.4534 65.1171 33.1255 62.6014 28.5118C61.6185 30.6934 61.1445 32.6714 60.4065 34.7648Z" fill="#F0B502"/>
<path d="M13.807 50.6004C15.7294 44.6563 17.6208 38.8073 19.4941 33.0143C20.0895 32.965 20.209 33.3033 20.3572 33.5942C21.4522 35.7446 22.5431 37.8972 23.6363 40.0485C23.8726 40.5137 23.9078 40.9611 23.7404 41.4849C20.1828 52.6189 16.6408 63.758 13.1025 74.8983C12.3591 77.2387 12.0088 77.3695 9.95159 76.001C7.75386 74.5391 7.01323 71.644 7.92743 68.8798C9.92668 62.8348 11.8322 56.7588 13.807 50.6004Z" fill="#F0B502"/>
<path d="M30.7308 43.036C31.0971 44.7789 31.4422 46.4188 31.7886 48.0654C31.5063 48.1107 31.3879 48.1635 31.3541 48.1303C29.111 45.924 26.5359 43.9939 25.0461 41.1339C20.047 31.537 15.0917 21.9173 10.1279 12.302C9.76908 11.607 9.33605 10.9106 9.59497 10.0606C9.89709 9.06891 10.4966 8.36072 11.5533 8.18144C12.7507 7.97828 13.6886 8.40947 14.2638 9.49959C15.2737 11.4139 16.2718 13.3347 17.2602 15.2603C21.2129 22.9617 25.1476 30.6724 29.1201 38.3636C29.8727 39.8207 30.4911 41.3013 30.7308 43.036Z" fill="white"/>
<path d="M65.1374 84.1491C68.4692 73.6214 71.7707 63.188 75.0772 52.7562C77.5905 44.8266 80.1027 36.8967 82.6333 28.9726C83.1251 27.4326 83.0385 25.9448 82.4822 24.4497C82.3608 24.1235 82.0131 23.8269 82.2825 23.3577C82.9084 23.3641 83.1946 23.8543 83.4671 24.2881C84.5242 25.9711 84.7266 27.7478 84.1122 29.6623C80.0313 42.3799 75.9729 55.1047 71.9094 67.8279C69.7829 74.486 67.6627 81.1462 65.5356 87.8041C64.9698 89.5752 63.828 90.8349 62.1031 91.5333C61.6706 91.7084 61.2048 92.0219 60.7155 91.6312C60.7261 91.5323 60.7066 91.4028 60.7471 91.3801C63.5344 89.8144 64.2539 86.9878 65.1374 84.1491Z" fill="white"/>
<path d="M25.2884 53.6853C31.6892 55.7079 37.9977 57.6939 44.3 59.6996C49.1362 61.2387 53.9634 62.8058 58.7975 64.3516C59.4784 64.5693 60.2452 64.6353 59.8903 65.7174C59.568 66.7 58.9582 66.556 58.2143 66.3178C52.43 64.4653 46.6385 62.6355 40.8527 60.7878C35.2654 59.0036 29.6816 57.2086 24.0987 55.4108C23.6407 55.2633 23.0463 55.2183 23.0017 54.5696C22.9729 54.1521 23.0964 53.6897 23.4337 53.4401C24.0485 52.9853 24.6044 53.5711 25.2884 53.6853Z" fill="white"/>
<path d="M51.7031 69.5377C53.3464 70.0561 54.8986 70.5335 56.4476 71.0213C57.0766 71.2193 57.6352 71.4401 57.3509 72.3267C57.0738 73.1907 56.602 73.2234 55.8238 72.9743C45.3163 69.6112 34.7999 66.2757 24.2854 62.9346C23.2537 62.6068 22.218 62.2918 21.1872 61.9613C20.4533 61.726 20.4135 61.2503 20.6359 60.5812C20.8654 59.8906 21.2088 59.8095 21.8591 60.0166C31.4206 63.061 40.9889 66.0838 50.5546 69.1147C50.9116 69.2279 51.259 69.3714 51.7031 69.5377Z" fill="white"/>
<path d="M17.8196 72.4542C21.6587 73.391 25.3011 74.7076 28.9917 75.8671C36.9752 78.3753 44.9473 80.9198 52.9214 83.4577C53.4501 83.6259 54.1571 83.6713 54.0279 84.5252C53.8848 85.4719 53.4328 85.7486 52.4569 85.4225C49.3783 84.3938 46.2707 83.4523 43.177 82.4686C34.9258 79.8447 26.6763 77.2152 18.4252 74.5911C16.987 74.1338 16.8747 73.8056 17.8196 72.4542Z" fill="white"/>
<path d="M46.0044 56.0215C39.2085 53.8736 32.5085 51.753 25.8056 49.6417C25.0656 49.4086 24.4571 49.1472 24.795 48.1703C25.122 47.2251 25.7522 47.4797 26.4135 47.6902C37.5481 51.2338 48.6883 54.7599 59.8112 58.3394C60.5384 58.5734 61.9448 58.5123 61.4556 59.9638C60.9638 61.4228 59.8889 60.4805 59.1609 60.2552C54.7919 58.9032 50.4502 57.4626 46.0044 56.0215Z" fill="white"/>
<path d="M18.8593 66.8161C19.0626 65.8251 19.5411 65.615 20.4235 65.8988C31.8806 69.5833 43.3446 73.2461 54.8098 76.9054C55.4823 77.12 55.945 77.3571 55.6675 78.2199C55.3911 79.0793 54.8411 79.0197 54.192 78.8116C50.5058 77.6297 46.8226 76.4387 43.1345 75.2627C35.4386 72.8087 27.7389 70.3662 20.0458 67.9033C19.5365 67.7403 18.8066 67.7611 18.8593 66.8161Z" fill="white"/>
<path d="M45.6061 40.1228C51.9218 42.1398 58.143 44.1256 64.3632 46.1146C64.9443 46.3004 65.6521 46.3624 65.4479 47.2995C65.2437 48.2365 64.7432 48.3458 63.8918 48.0653C60.2959 46.8805 56.6838 45.745 53.0758 44.5969C45.7818 42.2758 38.4919 39.9417 31.1872 37.6544C29.8853 37.2468 29.3821 36.3726 29.1049 34.8263C34.7227 36.6295 40.117 38.361 45.6061 40.1228Z" fill="white"/>
<path d="M48.1552 47.3236C53.0466 48.8837 57.8442 50.4114 62.6442 51.9316C63.3217 52.1461 63.933 52.3401 63.6169 53.2948C63.306 54.2338 62.7086 54.0549 62.024 53.8361C52.7464 50.8701 43.4665 47.9117 34.1862 44.9543C33.4227 44.7109 32.7167 44.5009 32.5592 43.4941C32.4063 42.5174 32.7239 42.3669 33.5557 42.634C36.0129 43.4231 38.4766 44.1922 40.9343 44.9801C43.3125 45.7426 45.6864 46.5186 48.1552 47.3236Z" fill="white"/>
</svg>
